<svg id="Layer_1" data-name="Layer 1" xmlns="http://www.w3.org/2000/svg" viewBox="0 0 1653.14 666.32">
  <defs>
    <style>
      .cls-1, .cls-2 {
        fill: orange;
      }

      .cls-2 {
        isolation: isolate;
        font-size: 378.79px;
        font-family: Roboto-Bold, Roboto;
        font-weight: 700;
        letter-spacing: 0.01em;
      }
    </style>
  </defs>
  <title>logo_desktop2</title>
  <path class="cls-1" d="M495,593.2l6,72,150-13s0-19-2-19c0,0-2-8-6-8,0,0-7-7-11-6s-24,1-24,1-26,0-27-1c0,0-20-10-21-12,0,0-15-17-14-19S495,593.2,495,593.2Z" transform="translate(-87.24 -0.01)"/>
  <g>
    <path class="cls-1" d="M252,500.2l20,47s-13,14-13,17c0,0-6,15-6,20,0,0,0,20,3,25,0,0,11,25,10,25,0,0,1,18-2,18,0,0-8,11-12,10,0,0-11,5-12,4l-56-139Z" transform="translate(-87.24 -0.01)"/>
    <path class="cls-1" d="M109,65.2s-31,28-19,79c0,0,17,52,30,67,0,0,27,34,36,40s41,30,51,31c0,0,36,13,44,11s58,0,65-15c0,0,68,80,70,91,0,0-46,37-49,35l-39,23-45,20,57,139s50-27,50-31c0,0,53-38,53-42,0,0,33-30,32-34,0,0,20-22,22-26s7,1,7,1-27,62-31,60c0,0,9,61,7,60l148-14s-23-97-31-103c0,0-24-49-28-52,0,0-19-30-22-31l-2-3s26-62,28-70,13-49,11-51c0,0,40-1,42-8,0,0,28-25,28-39,0,0,11-54,9-55,0,0,20-116,19-117s-19-7-18-5-1,0-1,0-37,140-38,140-11,6-14,5-13-6-12-15,34-136,33-137-12-10-19-4c0,0-36,133-37,134s-10,11-16,8-13-9-12-16,37-133,36-135-14-10-21-4l-48,130s-19,44-14,59c0,0,9,28,14,29,0,0,11,13,14,12l1,3s-41,69-45,67-47-38-50-38c0,0-49-32-51-29,0,0,9-38,6-47,0,0-5-33-9-32,0,0-14-32-18-32,0,0-9-14-10-14s-21-23-25-22c0,0-23-20-25-18,0,0-23-13-28-13,0,0-19-8-22-8,0,0-22-7-24-5,0,0-40-3-39-1,0,0-22,3-22,5,0,0-12,4-13,6C125,54.2,109,64.2,109,65.2Z" transform="translate(-87.24 -0.01)"/>
    <text class="cls-2" transform="translate(563.69 500.19)">eat up</text>
  </g>
</svg>
