<?xml version="1.0" encoding="utf-8"?>
<!-- Generator: Adobe Illustrator 23.0.5, SVG Export Plug-In . SVG Version: 6.00 Build 0)  -->
<svg version="1.1" id="Layer_1" xmlns="http://www.w3.org/2000/svg" xmlns:xlink="http://www.w3.org/1999/xlink" x="0px" y="0px"
	 viewBox="0 0 122.9 122.6" style="enable-background:new 0 0 122.9 122.6;" xml:space="preserve">
<style type="text/css">
	.st0{fill-rule:evenodd;clip-rule:evenodd;fill:#FFFFFF;}
</style>
<g>
	<path class="st0" d="M109,47.1c7.7-0.1,13.9,6.1,13.9,13.8c0,7.7-6.3,14-13.9,14l-33.7,0.2L75,108.9c-0.1,7.6-6.3,13.8-14,13.8
		c-7.7,0-13.8-6.2-13.8-13.8l0.2-33.5l-33.6,0.2C6.2,75.6,0,69.4,0,61.8c0-7.7,6.3-14,13.9-14l33.7-0.2l0.2-33.7
		C47.9,6.2,54.2,0,61.9,0c7.7,0,13.8,6.2,13.8,13.8l-0.2,33.5L109,47.1L109,47.1z"/>
</g>
</svg>
