<svg xmlns="http://www.w3.org/2000/svg" viewBox="0 0 21.81 21.5"><defs><style>.cls-1{fill:#151e28;fill-rule:evenodd;}</style></defs><title>Asset 1</title><g id="Layer_2" data-name="Layer 2"><g id="Layer_1-2" data-name="Layer 1"><path class="cls-1" d="M.75,0A.76.76,0,0,0,0,.75a.76.76,0,0,0,.75.75h.78A2.24,2.24,0,0,1,3.68,3.09l2.7,8.76A3.75,3.75,0,0,0,10,14.5h6.55a3.76,3.76,0,0,0,3.59-2.67L21.7,6.54A2.76,2.76,0,0,0,19.06,3H5.23l-.11-.35A3.75,3.75,0,0,0,1.53,0ZM7.82,11.41,5.69,4.5H19.06a1.25,1.25,0,0,1,1.2,1.61L18.67,11.4A2.24,2.24,0,0,1,16.52,13H10A2.24,2.24,0,0,1,7.82,11.41ZM9.75,17.5A1.25,1.25,0,1,0,11,18.75,1.25,1.25,0,0,0,9.75,17.5ZM7,18.75A2.75,2.75,0,1,1,9.75,21.5,2.75,2.75,0,0,1,7,18.75ZM17.75,17.5A1.25,1.25,0,1,0,19,18.75,1.25,1.25,0,0,0,17.75,17.5ZM15,18.75a2.75,2.75,0,1,1,2.75,2.75A2.75,2.75,0,0,1,15,18.75Z"/></g></g></svg>