<svg width="24" height="24" xmlns="http://www.w3.org/2000/svg" fill="currentColor">

 <g>
  <title>Layer 1</title>
  <path id="svg_1" d="m10.73,1.25l-0.109,0c-0.513,0 -0.962,-0.002 -1.363,0.156a2.25,2.25 0 0 0 -0.903,0.65c-0.276,0.331 -0.418,0.758 -0.58,1.245l-0.034,0.103l-0.282,0.846l-5.459,0a0.75,0.75 0 0 0 0,1.5l1.293,0l0.604,10.27l0.002,0.032c0.06,1.033 0.109,1.853 0.2,2.513c0.095,0.676 0.242,1.246 0.533,1.764a4.75,4.75 0 0 0 2.058,1.94c0.534,0.26 1.111,0.374 1.792,0.428c0.664,0.053 1.486,0.053 2.52,0.053l1.996,0c1.035,0 1.857,0 2.521,-0.053c0.68,-0.054 1.258,-0.167 1.792,-0.427a4.75,4.75 0 0 0 2.058,-1.941c0.291,-0.518 0.438,-1.088 0.532,-1.764c0.092,-0.66 0.14,-1.48 0.201,-2.513l0.002,-0.032l0.604,-10.27l1.292,0a0.75,0.75 0 0 0 0,-1.5l-5.46,0l-0.281,-0.846l-0.035,-0.103c-0.161,-0.487 -0.303,-0.914 -0.58,-1.244a2.25,2.25 0 0 0 -0.902,-0.65c-0.4,-0.159 -0.85,-0.158 -1.363,-0.157l-2.649,0zm5.252,4.5l3.224,0l-0.6,10.182c-0.062,1.072 -0.108,1.832 -0.19,2.426c-0.082,0.586 -0.192,0.948 -0.354,1.235a3.25,3.25 0 0 1 -1.408,1.328c-0.297,0.145 -0.665,0.234 -1.254,0.28c-0.598,0.048 -1.36,0.049 -2.434,0.049l-1.93,0c-1.074,0 -1.836,0 -2.434,-0.048c-0.59,-0.047 -0.957,-0.136 -1.254,-0.28a3.25,3.25 0 0 1 -1.408,-1.329c-0.162,-0.287 -0.272,-0.65 -0.354,-1.235c-0.082,-0.594 -0.128,-1.354 -0.19,-2.426l-0.6,-10.182l11.186,0zm-1.023,-1.5l-0.123,-0.372c-0.217,-0.65 -0.273,-0.776 -0.342,-0.86a0.75,0.75 0 0 0 -0.3,-0.216c-0.1,-0.04 -0.238,-0.052 -0.924,-0.052l-2.54,0c-0.686,0 -0.823,0.013 -0.923,0.052a0.75,0.75 0 0 0 -0.301,0.217c-0.07,0.083 -0.125,0.208 -0.342,0.86l-0.123,0.371l5.918,0zm-4.209,5.75aNaN,NaN  0 0 -1.06989,2.25806l-0.43011,4.74194a0.75,0.75 0 0 0 1.5,0l0,-7zm3.25,-0.75a0.75,0.75 0 0 1 0.75,0.75l0,4a0.75,0.75 0 0 1 -1.5,0l0,-4a0.75,0.75 0 0 1 0.75,-0.75z" fill-rule="evenodd"/>
 </g>
</svg>